<?xml version="1.0" standalone="no"?>
<!DOCTYPE svg PUBLIC "-//W3C//DTD SVG 1.1//EN" "http://www.w3.org/Graphics/SVG/1.1/DTD/svg11.dtd">

<svg width="350" height="120" 
  xmlns="http://www.w3.org/2000/svg"
  xmlns:xlink="http://www.w3.org/1999/xlink">


<g transform="translate(70  20)">
<rect x="0" y="0" width="30" height="100" fill="#3da5d9" style="stroke:white; stroke-width:3"/>
</g>
<g transform="translate(0   20)">
<path d="M0,0 h80 L40,100" fill="#2364aa" style="stroke:white; stroke-width:3"/>
</g>
<g transform="translate(140  0)">
<polygon points="0,0 70,0 50,20 50,120 20,120 20,20" fill="#ea7317" style="stroke:white; stroke-width:3"/>
</g>
<g transform="translate(90  20)">
<g transform="rotate(45 50 50)">
<path d="M50,50 v-50 a50,50 0 1,0 50,50 Z" fill="#fec601" style="stroke:white; stroke-width:3"/>
</g>
</g>
<g transform="translate(270 20)">
<g transform="skewX(20)">
<rect x="10" y="30" width="20" height="70" fill="#2364aa" style="stroke:white; stroke-width:3"/>
</g>
<circle cx="30" cy="30" r="30" fill="#2364aa" style="stroke:white; stroke-width:3"/>
<rect x="0" y="0" width="30" height="100" fill="#2364aa" style="stroke:white; stroke-width:3"/>
</g>
<g transform="translate(180 20)">
<circle cx="50" cy="50" r="50" fill="#73bfb8" style="stroke:white; stroke-width:3"/>
</g>

</svg>