<?xml version="1.0" standalone="no"?>
<!DOCTYPE svg PUBLIC "-//W3C//DTD SVG 1.1//EN" "http://www.w3.org/Graphics/SVG/1.1/DTD/svg11.dtd">

<svg viewBox="0 0 350 50" width="100%" height="100%" 
  xmlns="http://www.w3.org/2000/svg"
  xmlns:xlink="http://www.w3.org/1999/xlink">


<g transform="translate(0 0)">
<rect x="0" y="0" width="50" height="50" fill="#fff"/>
<defs>
<clipPath id="clipper">
<rect width="50" height="50"/>
</clipPath>
</defs>
<g clip-path="url(#clipper)">
<rect x="10" y="0" width="10" height="10" fill="#815946" style="stroke:#815946; stroke-width:0.1"/>
<rect x="30" y="0" width="10" height="10" fill="#815946" style="stroke:#815946; stroke-width:0.1"/>
<rect x="0" y="10" width="10" height="10" fill="#815946" style="stroke:#815946; stroke-width:0.1"/>
<rect x="40" y="10" width="10" height="10" fill="#815946" style="stroke:#815946; stroke-width:0.1"/>
<rect x="10" y="10" width="10" height="10" fill="#815946" style="stroke:#815946; stroke-width:0.1"/>
<rect x="30" y="10" width="10" height="10" fill="#815946" style="stroke:#815946; stroke-width:0.1"/>
<rect x="20" y="10" width="10" height="10" fill="#815946" style="stroke:#815946; stroke-width:0.1"/>
<rect x="10" y="20" width="10" height="10" fill="#815946" style="stroke:#815946; stroke-width:0.1"/>
<rect x="30" y="20" width="10" height="10" fill="#815946" style="stroke:#815946; stroke-width:0.1"/>
<rect x="10" y="30" width="10" height="10" fill="#815946" style="stroke:#815946; stroke-width:0.1"/>
<rect x="30" y="30" width="10" height="10" fill="#815946" style="stroke:#815946; stroke-width:0.1"/>
<rect x="20" y="30" width="10" height="10" fill="#815946" style="stroke:#815946; stroke-width:0.1"/>
</g>
</g>
<g transform="translate(60 0)">
<rect x="0" y="0" width="50" height="50" fill="#fff"/>
<defs>
<clipPath id="clipper">
<rect width="50" height="50"/>
</clipPath>
</defs>
<g clip-path="url(#clipper)">
<rect x="0" y="0" width="10" height="10" fill="#65c002" style="stroke:#65c002; stroke-width:0.1"/>
<rect x="40" y="0" width="10" height="10" fill="#65c002" style="stroke:#65c002; stroke-width:0.1"/>
<rect x="10" y="0" width="10" height="10" fill="#65c002" style="stroke:#65c002; stroke-width:0.1"/>
<rect x="30" y="0" width="10" height="10" fill="#65c002" style="stroke:#65c002; stroke-width:0.1"/>
<rect x="20" y="0" width="10" height="10" fill="#65c002" style="stroke:#65c002; stroke-width:0.1"/>
<rect x="10" y="10" width="10" height="10" fill="#65c002" style="stroke:#65c002; stroke-width:0.1"/>
<rect x="30" y="10" width="10" height="10" fill="#65c002" style="stroke:#65c002; stroke-width:0.1"/>
<rect x="10" y="20" width="10" height="10" fill="#65c002" style="stroke:#65c002; stroke-width:0.1"/>
<rect x="30" y="20" width="10" height="10" fill="#65c002" style="stroke:#65c002; stroke-width:0.1"/>
<rect x="20" y="20" width="10" height="10" fill="#65c002" style="stroke:#65c002; stroke-width:0.1"/>
<rect x="0" y="30" width="10" height="10" fill="#65c002" style="stroke:#65c002; stroke-width:0.1"/>
<rect x="40" y="30" width="10" height="10" fill="#65c002" style="stroke:#65c002; stroke-width:0.1"/>
<rect x="10" y="40" width="10" height="10" fill="#65c002" style="stroke:#65c002; stroke-width:0.1"/>
<rect x="30" y="40" width="10" height="10" fill="#65c002" style="stroke:#65c002; stroke-width:0.1"/>
<rect x="20" y="40" width="10" height="10" fill="#65c002" style="stroke:#65c002; stroke-width:0.1"/>
</g>
</g>
<g transform="translate(120 0)">
<rect x="0" y="0" width="50" height="50" fill="#fff"/>
<defs>
<clipPath id="clipper">
<rect width="50" height="50"/>
</clipPath>
</defs>
<g clip-path="url(#clipper)">
<rect x="0" y="0" width="10" height="10" fill="#0486aa" style="stroke:#0486aa; stroke-width:0.1"/>
<rect x="40" y="0" width="10" height="10" fill="#0486aa" style="stroke:#0486aa; stroke-width:0.1"/>
<rect x="0" y="10" width="10" height="10" fill="#0486aa" style="stroke:#0486aa; stroke-width:0.1"/>
<rect x="40" y="10" width="10" height="10" fill="#0486aa" style="stroke:#0486aa; stroke-width:0.1"/>
<rect x="20" y="10" width="10" height="10" fill="#0486aa" style="stroke:#0486aa; stroke-width:0.1"/>
<rect x="10" y="30" width="10" height="10" fill="#0486aa" style="stroke:#0486aa; stroke-width:0.1"/>
<rect x="30" y="30" width="10" height="10" fill="#0486aa" style="stroke:#0486aa; stroke-width:0.1"/>
<rect x="0" y="40" width="10" height="10" fill="#0486aa" style="stroke:#0486aa; stroke-width:0.1"/>
<rect x="40" y="40" width="10" height="10" fill="#0486aa" style="stroke:#0486aa; stroke-width:0.1"/>
<rect x="10" y="40" width="10" height="10" fill="#0486aa" style="stroke:#0486aa; stroke-width:0.1"/>
<rect x="30" y="40" width="10" height="10" fill="#0486aa" style="stroke:#0486aa; stroke-width:0.1"/>
<rect x="20" y="40" width="10" height="10" fill="#0486aa" style="stroke:#0486aa; stroke-width:0.1"/>
</g>
</g>
<g transform="translate(180 0)">
<rect x="0" y="0" width="50" height="50" fill="#fff"/>
<defs>
<clipPath id="clipper">
<rect width="50" height="50"/>
</clipPath>
</defs>
<g clip-path="url(#clipper)">
<rect x="0" y="0" width="10" height="10" fill="#4b303a" style="stroke:#4b303a; stroke-width:0.1"/>
<rect x="40" y="0" width="10" height="10" fill="#4b303a" style="stroke:#4b303a; stroke-width:0.1"/>
<rect x="0" y="10" width="10" height="10" fill="#4b303a" style="stroke:#4b303a; stroke-width:0.1"/>
<rect x="40" y="10" width="10" height="10" fill="#4b303a" style="stroke:#4b303a; stroke-width:0.1"/>
<rect x="10" y="10" width="10" height="10" fill="#4b303a" style="stroke:#4b303a; stroke-width:0.1"/>
<rect x="30" y="10" width="10" height="10" fill="#4b303a" style="stroke:#4b303a; stroke-width:0.1"/>
<rect x="0" y="20" width="10" height="10" fill="#4b303a" style="stroke:#4b303a; stroke-width:0.1"/>
<rect x="40" y="20" width="10" height="10" fill="#4b303a" style="stroke:#4b303a; stroke-width:0.1"/>
<rect x="0" y="30" width="10" height="10" fill="#4b303a" style="stroke:#4b303a; stroke-width:0.1"/>
<rect x="40" y="30" width="10" height="10" fill="#4b303a" style="stroke:#4b303a; stroke-width:0.1"/>
<rect x="10" y="30" width="10" height="10" fill="#4b303a" style="stroke:#4b303a; stroke-width:0.1"/>
<rect x="30" y="30" width="10" height="10" fill="#4b303a" style="stroke:#4b303a; stroke-width:0.1"/>
<rect x="20" y="30" width="10" height="10" fill="#4b303a" style="stroke:#4b303a; stroke-width:0.1"/>
<rect x="10" y="40" width="10" height="10" fill="#4b303a" style="stroke:#4b303a; stroke-width:0.1"/>
<rect x="30" y="40" width="10" height="10" fill="#4b303a" style="stroke:#4b303a; stroke-width:0.1"/>
<rect x="20" y="40" width="10" height="10" fill="#4b303a" style="stroke:#4b303a; stroke-width:0.1"/>
</g>
</g>
<g transform="translate(240 0)">
<rect x="0" y="0" width="50" height="50" fill="#fff"/>
<defs>
<clipPath id="clipper">
<rect width="50" height="50"/>
</clipPath>
</defs>
<g clip-path="url(#clipper)">
<rect x="0" y="0" width="10" height="10" fill="#2b9bed" style="stroke:#2b9bed; stroke-width:0.1"/>
<rect x="40" y="0" width="10" height="10" fill="#2b9bed" style="stroke:#2b9bed; stroke-width:0.1"/>
<rect x="10" y="0" width="10" height="10" fill="#2b9bed" style="stroke:#2b9bed; stroke-width:0.1"/>
<rect x="30" y="0" width="10" height="10" fill="#2b9bed" style="stroke:#2b9bed; stroke-width:0.1"/>
<rect x="0" y="10" width="10" height="10" fill="#2b9bed" style="stroke:#2b9bed; stroke-width:0.1"/>
<rect x="40" y="10" width="10" height="10" fill="#2b9bed" style="stroke:#2b9bed; stroke-width:0.1"/>
<rect x="10" y="10" width="10" height="10" fill="#2b9bed" style="stroke:#2b9bed; stroke-width:0.1"/>
<rect x="30" y="10" width="10" height="10" fill="#2b9bed" style="stroke:#2b9bed; stroke-width:0.1"/>
<rect x="20" y="10" width="10" height="10" fill="#2b9bed" style="stroke:#2b9bed; stroke-width:0.1"/>
<rect x="0" y="30" width="10" height="10" fill="#2b9bed" style="stroke:#2b9bed; stroke-width:0.1"/>
<rect x="40" y="30" width="10" height="10" fill="#2b9bed" style="stroke:#2b9bed; stroke-width:0.1"/>
<rect x="10" y="30" width="10" height="10" fill="#2b9bed" style="stroke:#2b9bed; stroke-width:0.1"/>
<rect x="30" y="30" width="10" height="10" fill="#2b9bed" style="stroke:#2b9bed; stroke-width:0.1"/>
<rect x="20" y="30" width="10" height="10" fill="#2b9bed" style="stroke:#2b9bed; stroke-width:0.1"/>
<rect x="0" y="40" width="10" height="10" fill="#2b9bed" style="stroke:#2b9bed; stroke-width:0.1"/>
<rect x="40" y="40" width="10" height="10" fill="#2b9bed" style="stroke:#2b9bed; stroke-width:0.1"/>
<rect x="10" y="40" width="10" height="10" fill="#2b9bed" style="stroke:#2b9bed; stroke-width:0.1"/>
<rect x="30" y="40" width="10" height="10" fill="#2b9bed" style="stroke:#2b9bed; stroke-width:0.1"/>
<rect x="20" y="40" width="10" height="10" fill="#2b9bed" style="stroke:#2b9bed; stroke-width:0.1"/>
</g>
</g>
<g transform="translate(300 0)">
<rect x="0" y="0" width="50" height="50" fill="#fff"/>
<defs>
<clipPath id="clipper">
<rect width="50" height="50"/>
</clipPath>
</defs>
<g clip-path="url(#clipper)">
<rect x="20" y="0" width="10" height="10" fill="#bf3cda" style="stroke:#bf3cda; stroke-width:0.1"/>
<rect x="10" y="10" width="10" height="10" fill="#bf3cda" style="stroke:#bf3cda; stroke-width:0.1"/>
<rect x="30" y="10" width="10" height="10" fill="#bf3cda" style="stroke:#bf3cda; stroke-width:0.1"/>
<rect x="20" y="10" width="10" height="10" fill="#bf3cda" style="stroke:#bf3cda; stroke-width:0.1"/>
<rect x="0" y="20" width="10" height="10" fill="#bf3cda" style="stroke:#bf3cda; stroke-width:0.1"/>
<rect x="40" y="20" width="10" height="10" fill="#bf3cda" style="stroke:#bf3cda; stroke-width:0.1"/>
<rect x="20" y="20" width="10" height="10" fill="#bf3cda" style="stroke:#bf3cda; stroke-width:0.1"/>
<rect x="0" y="30" width="10" height="10" fill="#bf3cda" style="stroke:#bf3cda; stroke-width:0.1"/>
<rect x="40" y="30" width="10" height="10" fill="#bf3cda" style="stroke:#bf3cda; stroke-width:0.1"/>
<rect x="10" y="30" width="10" height="10" fill="#bf3cda" style="stroke:#bf3cda; stroke-width:0.1"/>
<rect x="30" y="30" width="10" height="10" fill="#bf3cda" style="stroke:#bf3cda; stroke-width:0.1"/>
<rect x="20" y="30" width="10" height="10" fill="#bf3cda" style="stroke:#bf3cda; stroke-width:0.1"/>
<rect x="0" y="40" width="10" height="10" fill="#bf3cda" style="stroke:#bf3cda; stroke-width:0.1"/>
<rect x="40" y="40" width="10" height="10" fill="#bf3cda" style="stroke:#bf3cda; stroke-width:0.1"/>
<rect x="10" y="40" width="10" height="10" fill="#bf3cda" style="stroke:#bf3cda; stroke-width:0.1"/>
<rect x="30" y="40" width="10" height="10" fill="#bf3cda" style="stroke:#bf3cda; stroke-width:0.1"/>
</g>
</g>

</svg>